<?xml version="1.0" standalone="no"?><!DOCTYPE svg PUBLIC "-//W3C//DTD SVG 1.1//EN" "http://www.w3.org/Graphics/SVG/1.1/DTD/svg11.dtd"><svg class="icon" width="128px" height="128.00px" viewBox="0 0 1024 1024" version="1.1" xmlns="http://www.w3.org/2000/svg"><path fill="#1296db" d="M896 0a128 128 0 0 1 128 128v768a128 128 0 0 1-128 128H128a128 128 0 0 1-128-128V128a128 128 0 0 1 128-128h768z m0 42.666667H128a85.333333 85.333333 0 0 0-85.333333 85.333333v768a85.333333 85.333333 0 0 0 85.333333 85.333333h768a85.333333 85.333333 0 0 0 85.333333-85.333333V128a85.333333 85.333333 0 0 0-85.333333-85.333333z m-170.666667 85.333333v597.333333H128V128h597.333333z m42.666667 0h128v128h-128V128z m0 213.333333h128v128h-128V341.333333z m0 213.333334h128v128h-128v-128z m0 213.333333h128v128h-128v-128zM128 768h128v128H128v-128z m213.333333 0h128v128H341.333333v-128z m213.333334 0h128v128h-128v-128z"  /></svg>