<?xml version="1.0" standalone="no"?><!DOCTYPE svg PUBLIC "-//W3C//DTD SVG 1.1//EN" "http://www.w3.org/Graphics/SVG/1.1/DTD/svg11.dtd"><svg class="icon" width="128px" height="128.00px" viewBox="0 0 1024 1024" version="1.1" xmlns="http://www.w3.org/2000/svg"><path fill="#cdcdcd" d="M938.666667 0a85.333333 85.333333 0 0 1 85.333333 85.333333v853.333334a85.333333 85.333333 0 0 1-85.333333 85.333333H85.333333a85.333333 85.333333 0 0 1-85.333333-85.333333V85.333333a85.333333 85.333333 0 0 1 85.333333-85.333333h853.333334z m0 42.666667H85.333333a42.666667 42.666667 0 0 0-42.368 37.674666L42.666667 85.333333v853.333334a42.666667 42.666667 0 0 0 37.674666 42.368L85.333333 981.333333h853.333334a42.666667 42.666667 0 0 0 42.368-37.674666L981.333333 938.666667V85.333333a42.666667 42.666667 0 0 0-37.674666-42.368L938.666667 42.666667z"  /><path fill="#cdcdcd" d="M446.592 534.741333a42.666667 42.666667 0 0 1 42.666667 42.666667V810.666667a42.666667 42.666667 0 0 1-42.666667 42.666666H213.333333a42.666667 42.666667 0 0 1-42.666666-42.666666v-233.258667a42.666667 42.666667 0 0 1 42.666666-42.666667h233.258667z m364.074667 0a42.666667 42.666667 0 0 1 42.666666 42.666667V810.666667a42.666667 42.666667 0 0 1-42.666666 42.666666h-233.258667a42.666667 42.666667 0 0 1-42.666667-42.666666v-233.258667a42.666667 42.666667 0 0 1 42.666667-42.666667H810.666667zM446.592 170.666667a42.666667 42.666667 0 0 1 42.666667 42.666666v233.258667a42.666667 42.666667 0 0 1-42.666667 42.666667H213.333333a42.666667 42.666667 0 0 1-42.666666-42.666667V213.333333a42.666667 42.666667 0 0 1 42.666666-42.666666h233.258667zM810.666667 170.666667a42.666667 42.666667 0 0 1 42.666666 42.666666v233.258667a42.666667 42.666667 0 0 1-42.666666 42.666667h-233.258667a42.666667 42.666667 0 0 1-42.666667-42.666667V213.333333a42.666667 42.666667 0 0 1 42.666667-42.666666H810.666667z"  /></svg>