<?xml version="1.0" standalone="no"?><!DOCTYPE svg PUBLIC "-//W3C//DTD SVG 1.1//EN" "http://www.w3.org/Graphics/SVG/1.1/DTD/svg11.dtd"><svg class="icon" width="128px" height="128.00px" viewBox="0 0 1024 1024" version="1.1" xmlns="http://www.w3.org/2000/svg"><path fill="#cdcdcd" d="M910.222222 1024H113.777778c-62.577778 0-113.777778-51.2-113.777778-113.777778V113.777778c0-62.577778 51.2-113.777778 113.777778-113.777778h796.444444c62.577778 0 113.777778 51.2 113.777778 113.777778v796.444444c0 62.577778-51.2 113.777778-113.777778 113.777778zM113.777778 54.044444c-34.133333 0-62.577778 28.444444-62.577778 62.577778V910.222222c0 34.133333 28.444444 62.577778 62.577778 62.577778h796.444444c34.133333 0 62.577778-28.444444 62.577778-62.577778V113.777778c0-34.133333-28.444444-62.577778-62.577778-62.577778H113.777778z"  /><path fill="#cdcdcd" d="M241.777778 241.777778h543.288889v543.288889H241.777778z"  /></svg>