<?xml version="1.0" standalone="no"?><!DOCTYPE svg PUBLIC "-//W3C//DTD SVG 1.1//EN" "http://www.w3.org/Graphics/SVG/1.1/DTD/svg11.dtd"><svg class="icon" width="128px" height="128.00px" viewBox="0 0 1024 1024" version="1.1" xmlns="http://www.w3.org/2000/svg"><path fill="#cdcdcd" d="M896 0a128 128 0 0 1 128 128v768a128 128 0 0 1-128 128H128a128 128 0 0 1-128-128V128a128 128 0 0 1 128-128h768z m0 42.666667H128a85.333333 85.333333 0 0 0-85.333333 85.333333v768a85.333333 85.333333 0 0 0 85.333333 85.333333h768a85.333333 85.333333 0 0 0 85.333333-85.333333V128a85.333333 85.333333 0 0 0-85.333333-85.333333z m-256 42.666666v554.666667H85.333333V128a42.666667 42.666667 0 0 1 42.666667-42.666667h512z m42.666667 0h213.333333a42.666667 42.666667 0 0 1 42.666667 42.666667v213.333333h-256V85.333333z m0 298.666667h256v256h-256V384z m0 298.666667h256v213.333333a42.666667 42.666667 0 0 1-42.666667 42.666667h-213.333333v-256zM85.333333 682.666667h256v256H128a42.666667 42.666667 0 0 1-42.666667-42.666667v-213.333333z m298.666667 0h256v256H384v-256z"  /></svg>