<?xml version="1.0" standalone="no"?><!DOCTYPE svg PUBLIC "-//W3C//DTD SVG 1.1//EN" "http://www.w3.org/Graphics/SVG/1.1/DTD/svg11.dtd"><svg class="icon" width="128px" height="128.00px" viewBox="0 0 1024 1024" version="1.1" xmlns="http://www.w3.org/2000/svg"><path fill="#cdcdcd" d="M231.5776 819.2v204.8H102.4a102.4 102.4 0 0 1-102.4-102.4v-102.4h231.5776z m256 0v204.8H280.4224v-204.8h207.2064z m256 0v204.8h-207.2064v-204.8h207.2064zM1024 819.2v102.4a102.4 102.4 0 0 1-102.4 102.4h-129.2288v-204.8H1024zM231.5776 563.2v204.8H0v-204.8h231.5776z m256 0v204.8H280.3712v-204.8h207.2064z m256 0v204.8h-207.2064v-204.8h207.2064zM1024 563.2v204.8h-231.6288v-204.8H1024zM231.5776 307.2v204.8H0V307.2h231.5776z m256 0v204.8H280.3712V307.2h207.2064z m256 0v204.8h-207.2064V307.2h207.2064zM1024 307.2v204.8h-231.6288V307.2H1024z m-102.4-307.2a102.4 102.4 0 0 1 102.4 102.4v153.6h-231.6288V0H921.6zM231.6288 0l-0.0512 256H0V102.4a102.4 102.4 0 0 1 102.4-102.4h129.2288z m256 0l-0.0512 256H280.3712V0h207.2576z m255.9488 256h-207.2064V0h207.2576l-0.0512 256z"  /></svg>